<mxfile host="app.diagrams.net" modified="2022-09-25T07:37:23.301Z" agent="5.0 (Macintosh; Intel Mac OS X 10_15_7) AppleWebKit/537.36 (KHTML, like Gecko) Chrome/105.0.0.0 Safari/537.36" etag="8QRI9tZb407PGK_QuC7a" version="20.3.6" type="github">
  <diagram id="GIk3zpjn_Su-Wy2v97HG" name="第 1 页">
    <mxGraphModel dx="1298" dy="834" grid="1" gridSize="10" guides="1" tooltips="1" connect="1" arrows="1" fold="1" page="1" pageScale="1" pageWidth="827" pageHeight="1169" math="0" shadow="0">
      <root>
        <mxCell id="0" />
        <mxCell id="1" parent="0" />
        <mxCell id="hiL4RjT5jnR4Him4Q8F5-3" value="邀请/拒绝/接受" style="rounded=1;whiteSpace=wrap;html=1;fillColor=#dae8fc;strokeColor=#6c8ebf;" vertex="1" parent="1">
          <mxGeometry x="150" y="220" width="120" height="60" as="geometry" />
        </mxCell>
        <mxCell id="hiL4RjT5jnR4Him4Q8F5-4" value="" style="shape=actor;whiteSpace=wrap;html=1;" vertex="1" parent="1">
          <mxGeometry x="460" y="140" width="40" height="60" as="geometry" />
        </mxCell>
        <mxCell id="hiL4RjT5jnR4Him4Q8F5-5" value="" style="shape=actor;whiteSpace=wrap;html=1;" vertex="1" parent="1">
          <mxGeometry x="330" y="140" width="40" height="60" as="geometry" />
        </mxCell>
        <mxCell id="hiL4RjT5jnR4Him4Q8F5-6" value="" style="shape=actor;whiteSpace=wrap;html=1;" vertex="1" parent="1">
          <mxGeometry x="180" y="140" width="40" height="60" as="geometry" />
        </mxCell>
        <mxCell id="hiL4RjT5jnR4Him4Q8F5-7" value="提前结束/再来一局" style="rounded=1;whiteSpace=wrap;html=1;fillColor=#dae8fc;strokeColor=#6c8ebf;" vertex="1" parent="1">
          <mxGeometry x="294" y="220" width="120" height="60" as="geometry" />
        </mxCell>
        <mxCell id="hiL4RjT5jnR4Him4Q8F5-8" value="PK面板信息" style="rounded=1;whiteSpace=wrap;html=1;fillColor=#dae8fc;strokeColor=#6c8ebf;" vertex="1" parent="1">
          <mxGeometry x="430" y="220" width="120" height="60" as="geometry" />
        </mxCell>
        <mxCell id="hiL4RjT5jnR4Him4Q8F5-9" value="送礼/点赞" style="rounded=1;whiteSpace=wrap;html=1;fillColor=#dae8fc;strokeColor=#6c8ebf;" vertex="1" parent="1">
          <mxGeometry x="570" y="220" width="120" height="60" as="geometry" />
        </mxCell>
        <mxCell id="hiL4RjT5jnR4Him4Q8F5-10" value="" style="shape=actor;whiteSpace=wrap;html=1;" vertex="1" parent="1">
          <mxGeometry x="600" y="140" width="40" height="60" as="geometry" />
        </mxCell>
        <mxCell id="hiL4RjT5jnR4Him4Q8F5-16" value="" style="rounded=0;whiteSpace=wrap;html=1;fillColor=none;" vertex="1" parent="1">
          <mxGeometry x="100" y="202.5" width="640" height="95" as="geometry" />
        </mxCell>
        <mxCell id="hiL4RjT5jnR4Him4Q8F5-17" value="API" style="text;html=1;align=center;verticalAlign=middle;resizable=0;points=[];autosize=1;strokeColor=none;fillColor=none;" vertex="1" parent="1">
          <mxGeometry x="100" y="220" width="40" height="30" as="geometry" />
        </mxCell>
        <mxCell id="hiL4RjT5jnR4Him4Q8F5-18" value="状态流转" style="rounded=1;whiteSpace=wrap;html=1;fillColor=#d5e8d4;strokeColor=#82b366;" vertex="1" parent="1">
          <mxGeometry x="280" y="370" width="120" height="60" as="geometry" />
        </mxCell>
        <mxCell id="hiL4RjT5jnR4Him4Q8F5-19" value="EndCaht" style="rounded=1;whiteSpace=wrap;html=1;fillColor=#e1d5e7;strokeColor=#9673a6;" vertex="1" parent="1">
          <mxGeometry x="560" y="400" width="120" height="60" as="geometry" />
        </mxCell>
        <mxCell id="hiL4RjT5jnR4Him4Q8F5-20" value="SwitchBiz" style="rounded=1;whiteSpace=wrap;html=1;fillColor=#e1d5e7;strokeColor=#9673a6;" vertex="1" parent="1">
          <mxGeometry x="560" y="330" width="120" height="60" as="geometry" />
        </mxCell>
        <mxCell id="hiL4RjT5jnR4Him4Q8F5-22" value="信息处理" style="rounded=1;whiteSpace=wrap;html=1;fillColor=#d5e8d4;strokeColor=#82b366;" vertex="1" parent="1">
          <mxGeometry x="130" y="370" width="120" height="60" as="geometry" />
        </mxCell>
        <mxCell id="hiL4RjT5jnR4Him4Q8F5-23" value="" style="rounded=0;whiteSpace=wrap;html=1;fillColor=none;" vertex="1" parent="1">
          <mxGeometry x="104" y="320" width="310" height="230" as="geometry" />
        </mxCell>
        <mxCell id="hiL4RjT5jnR4Him4Q8F5-24" value="玩法处理" style="rounded=1;whiteSpace=wrap;html=1;fillColor=#d5e8d4;strokeColor=#82b366;" vertex="1" parent="1">
          <mxGeometry x="130" y="460" width="120" height="60" as="geometry" />
        </mxCell>
        <mxCell id="hiL4RjT5jnR4Him4Q8F5-25" value="兼容处理" style="rounded=1;whiteSpace=wrap;html=1;fillColor=#d5e8d4;strokeColor=#82b366;" vertex="1" parent="1">
          <mxGeometry x="280" y="460" width="120" height="60" as="geometry" />
        </mxCell>
        <mxCell id="hiL4RjT5jnR4Him4Q8F5-26" value="PK业务逻辑" style="text;html=1;align=center;verticalAlign=middle;resizable=0;points=[];autosize=1;strokeColor=none;fillColor=none;" vertex="1" parent="1">
          <mxGeometry x="220" y="330" width="90" height="30" as="geometry" />
        </mxCell>
        <mxCell id="hiL4RjT5jnR4Him4Q8F5-27" value="。。。" style="text;html=1;align=center;verticalAlign=middle;resizable=0;points=[];autosize=1;strokeColor=none;fillColor=none;" vertex="1" parent="1">
          <mxGeometry x="235" y="430" width="60" height="30" as="geometry" />
        </mxCell>
        <mxCell id="hiL4RjT5jnR4Him4Q8F5-28" value="EndCaht" style="rounded=1;whiteSpace=wrap;html=1;fillColor=#e1d5e7;strokeColor=#9673a6;" vertex="1" parent="1">
          <mxGeometry x="560" y="470" width="120" height="60" as="geometry" />
        </mxCell>
        <mxCell id="hiL4RjT5jnR4Him4Q8F5-29" value="" style="rounded=0;whiteSpace=wrap;html=1;fillColor=none;" vertex="1" parent="1">
          <mxGeometry x="537" y="320" width="203" height="230" as="geometry" />
        </mxCell>
        <mxCell id="hiL4RjT5jnR4Him4Q8F5-30" value="互&lt;br&gt;动&lt;br&gt;框&lt;br&gt;架" style="text;html=1;align=center;verticalAlign=middle;resizable=0;points=[];autosize=1;strokeColor=none;fillColor=none;" vertex="1" parent="1">
          <mxGeometry x="690" y="395" width="40" height="70" as="geometry" />
        </mxCell>
        <mxCell id="hiL4RjT5jnR4Him4Q8F5-33" value="调用" style="html=1;shadow=0;dashed=0;align=center;verticalAlign=middle;shape=mxgraph.arrows2.twoWayArrow;dy=0.6;dx=35;" vertex="1" parent="1">
          <mxGeometry x="417" y="340" width="120" height="70" as="geometry" />
        </mxCell>
        <mxCell id="hiL4RjT5jnR4Him4Q8F5-34" value="回调" style="html=1;shadow=0;dashed=0;align=center;verticalAlign=middle;shape=mxgraph.arrows2.twoWayArrow;dy=0.6;dx=35;" vertex="1" parent="1">
          <mxGeometry x="417" y="450" width="120" height="70" as="geometry" />
        </mxCell>
      </root>
    </mxGraphModel>
  </diagram>
</mxfile>
